<svg width="1000" height="1000" viewBox="0 0 1000 1000" fill="none" xmlns="http://www.w3.org/2000/svg">
<rect width="1000" height="1000" fill="black"/>
<path d="M490.304 722.678C481.549 711.491 465.012 709.302 440.693 716.112C440.207 716.112 439.963 715.139 439.963 713.193C440.45 709.789 439.963 707.6 438.504 706.627C438.018 708.573 436.315 709.546 433.397 709.546C431.938 709.546 428.777 708.816 423.913 707.357C419.049 705.411 415.401 704.439 412.969 704.439C410.537 704.439 408.105 705.168 405.673 706.627C404.7 700.304 399.107 693.252 388.893 685.469C389.379 683.524 389.623 681.822 389.623 680.362C390.109 678.903 390.352 677.201 390.352 675.255C390.352 672.337 389.866 667.716 388.893 661.393C387.92 655.07 387.434 650.207 387.434 646.802C387.434 644.37 387.434 642.181 387.434 640.236C387.92 637.804 388.407 635.615 388.893 633.669C390.838 634.156 393.27 632.697 396.189 629.292C397.648 627.833 399.107 626.617 400.566 625.644C402.025 624.185 403.728 623.699 405.673 624.185C411.023 605.702 424.156 591.354 445.07 581.14C454.798 577.249 464.769 573.601 474.983 570.196C485.197 566.305 495.168 562.414 504.896 558.523C506.841 538.581 507.814 521.071 507.814 505.993C508.3 490.916 507.571 478.513 505.625 468.785C452.123 491.645 416.374 519.126 398.377 551.227C398.377 551.714 396.189 551.714 391.811 551.227C392.784 559.496 390.352 562.657 384.515 560.712V572.385C363.601 581.626 353.144 602.784 353.144 635.858C353.144 651.423 356.548 665.528 363.358 678.174C362.871 681.092 360.926 684.254 357.521 687.658C354.116 691.063 352.171 694.224 351.685 697.143C340.011 696.17 329.068 689.604 318.854 677.444C308.639 665.285 298.425 659.205 288.211 659.205C287.725 645.1 286.752 628.076 285.293 608.134C283.834 587.706 281.402 564.603 277.997 538.824C271.674 484.349 268.026 442.277 267.054 412.608C312.287 441.304 335.391 474.135 336.363 511.1C336.363 513.046 336.12 515.478 335.634 518.396C335.634 520.828 335.391 523.99 334.904 527.881C363.601 503.562 392.298 481.917 420.994 462.948C449.691 443.493 478.631 426.713 507.814 412.608V340.379C507.814 322.383 506.112 307.062 502.707 294.416C499.302 281.77 495.168 271.556 490.304 263.774C487.872 258.424 489.575 255.262 495.411 254.289L545.752 284.202C563.262 297.821 571.53 314.358 570.558 333.813C570.558 335.759 569.342 337.461 566.91 338.92C564.964 340.379 563.748 341.839 563.262 343.298C562.776 346.216 561.316 365.185 558.884 400.205C562.776 399.718 566.423 399.475 569.828 399.475C573.719 398.989 577.61 398.746 581.501 398.746C624.79 398.746 663.7 410.905 698.234 435.224C737.145 463.435 754.168 498.211 749.304 539.554C746.872 558.037 742.252 569.71 735.442 574.574V591.354C733.983 591.84 731.794 594.272 728.876 598.65C725.958 603.027 723.283 605.216 720.851 605.216C720.364 606.189 720.364 607.891 720.851 610.323C721.823 613.241 721.823 615.43 720.851 616.889C713.555 618.348 706.502 624.671 699.693 635.858C693.37 646.559 686.317 652.152 678.535 652.639L680.724 657.016C677.806 657.502 670.51 662.853 658.837 673.067C649.109 681.822 641.57 686.685 636.22 687.658C635.247 688.631 635.004 690.333 635.49 692.765C635.49 693.252 635.733 693.495 636.22 693.495C636.706 695.44 636.706 696.656 636.22 697.143C631.842 698.602 619.439 701.52 599.011 705.898C586.852 707.843 577.367 711.977 570.558 718.3C567.153 717.814 563.505 717.814 559.614 718.3C555.723 718.3 551.346 718.544 546.482 719.03C545.509 719.03 544.779 719.03 544.293 719.03C532.62 720.489 524.594 721.219 520.217 721.219C510.003 721.219 500.761 719.516 492.493 716.112L490.304 722.678ZM536.997 666.5C561.803 657.259 583.933 647.045 603.389 635.858C627.222 622.726 647.893 604.973 665.403 582.599C685.345 556.821 695.315 531.772 695.315 507.453C695.315 496.752 693.613 487.024 690.208 478.27C679.994 450.059 653.486 435.954 610.684 435.954C593.175 435.954 576.638 439.116 561.073 445.439C560.587 456.625 559.614 470.731 558.155 487.754C557.182 504.291 555.723 523.746 553.777 546.12C561.56 548.552 568.369 550.741 574.206 552.686C580.042 554.632 584.906 556.577 588.797 558.523C604.361 565.819 614.819 574.331 620.169 584.058C618.223 584.545 614.819 586.49 609.955 589.895C605.577 592.813 599.984 596.704 593.175 601.568C588.311 604.973 583.447 607.648 578.583 609.593C573.719 611.053 569.342 612.025 565.451 612.512C565.937 611.539 566.18 610.08 566.18 608.134C566.18 604.73 559.857 603.757 547.211 605.216C549.643 615.43 546.482 621.753 537.727 624.185C539.186 626.131 539.915 629.049 539.915 632.94C539.915 635.858 539.186 640.722 537.727 647.531C536.268 653.854 535.538 658.232 535.538 660.664C535.538 662.609 536.024 664.555 536.997 666.5ZM443.611 678.174C458.689 683.038 477.415 682.308 499.789 675.985C500.761 665.771 501.491 656.286 501.977 647.531C502.95 638.777 503.923 630.994 504.896 624.185C472.794 633.426 452.366 651.423 443.611 678.174Z" fill="white"/>
</svg>
