<svg width="188" height="180" viewBox="0 0 188 180" fill="none" xmlns="http://www.w3.org/2000/svg">
<path d="M85.6801 179.76C82.3201 175.467 75.9734 174.627 66.6401 177.24C66.4534 177.24 66.3601 176.867 66.3601 176.12C66.5467 174.813 66.3601 173.973 65.8001 173.6C65.6134 174.347 64.9601 174.72 63.8401 174.72C63.2801 174.72 62.0667 174.44 60.2001 173.88C58.3334 173.133 56.9334 172.76 56.0001 172.76C55.0667 172.76 54.1334 173.04 53.2001 173.6C52.8267 171.173 50.6801 168.467 46.7601 165.48C46.9467 164.733 47.0401 164.08 47.0401 163.52C47.2267 162.96 47.3201 162.307 47.3201 161.56C47.3201 160.44 47.1334 158.667 46.7601 156.24C46.3867 153.813 46.2001 151.947 46.2001 150.64C46.2001 149.707 46.2001 148.867 46.2001 148.12C46.3867 147.187 46.5734 146.347 46.7601 145.6C47.5067 145.787 48.4401 145.227 49.5601 143.92C50.1201 143.36 50.6801 142.893 51.2401 142.52C51.8001 141.96 52.4534 141.773 53.2001 141.96C55.2534 134.867 60.2934 129.36 68.3201 125.44C72.0534 123.947 75.8801 122.547 79.8001 121.24C83.7201 119.747 87.5467 118.253 91.2801 116.76C92.0267 109.107 92.4001 102.387 92.4001 96.6C92.5867 90.8133 92.3067 86.0533 91.5601 82.32C71.0267 91.0933 57.3067 101.64 50.4001 113.96C50.4001 114.147 49.5601 114.147 47.8801 113.96C48.2534 117.133 47.3201 118.347 45.0801 117.6V122.08C37.0534 125.627 33.0401 133.747 33.0401 146.44C33.0401 152.413 34.3467 157.827 36.9601 162.68C36.7734 163.8 36.0267 165.013 34.7201 166.32C33.4134 167.627 32.6667 168.84 32.4801 169.96C28.0001 169.587 23.8001 167.067 19.8801 162.4C15.9601 157.733 12.0401 155.4 8.12007 155.4C7.9334 149.987 7.56007 143.453 7.00007 135.8C6.44007 127.96 5.50674 119.093 4.20007 109.2C1.77341 88.2933 0.373405 72.1466 7.09295e-05 60.76C17.3601 71.7733 26.2267 84.3733 26.6001 98.56C26.6001 99.3066 26.5067 100.24 26.3201 101.36C26.3201 102.293 26.2267 103.507 26.0401 105C37.0534 95.6666 48.0667 87.36 59.0801 80.08C70.0934 72.6133 81.2001 66.1733 92.4001 60.76V33.04C92.4001 26.1333 91.7467 20.2533 90.4401 15.4C89.1334 10.5466 87.5467 6.62664 85.6801 3.63998C84.7467 1.58664 85.4001 0.373303 87.6401 -2.52724e-05L106.96 11.48C113.68 16.7066 116.853 23.0533 116.48 30.52C116.48 31.2666 116.013 31.92 115.08 32.48C114.333 33.04 113.867 33.6 113.68 34.16C113.493 35.28 112.933 42.56 112 56C113.493 55.8133 114.893 55.72 116.2 55.72C117.693 55.5333 119.187 55.44 120.68 55.44C137.293 55.44 152.227 60.1066 165.48 69.44C180.413 80.2666 186.947 93.6133 185.08 109.48C184.147 116.573 182.373 121.053 179.76 122.92V129.36C179.2 129.547 178.36 130.48 177.24 132.16C176.12 133.84 175.093 134.68 174.16 134.68C173.973 135.053 173.973 135.707 174.16 136.64C174.533 137.76 174.533 138.6 174.16 139.16C171.36 139.72 168.653 142.147 166.04 146.44C163.613 150.547 160.907 152.693 157.92 152.88L158.76 154.56C157.64 154.747 154.84 156.8 150.36 160.72C146.627 164.08 143.733 165.947 141.68 166.32C141.307 166.693 141.213 167.347 141.4 168.28C141.4 168.467 141.493 168.56 141.68 168.56C141.867 169.307 141.867 169.773 141.68 169.96C140 170.52 135.24 171.64 127.4 173.32C122.733 174.067 119.093 175.653 116.48 178.08C115.173 177.893 113.773 177.893 112.28 178.08C110.787 178.08 109.107 178.173 107.24 178.36C106.867 178.36 106.587 178.36 106.4 178.36C101.92 178.92 98.8401 179.2 97.1601 179.2C93.2401 179.2 89.6934 178.547 86.5201 177.24L85.6801 179.76ZM103.6 158.2C113.12 154.653 121.613 150.733 129.08 146.44C138.227 141.4 146.16 134.587 152.88 126C160.533 116.107 164.36 106.493 164.36 97.16C164.36 93.0533 163.707 89.32 162.4 85.96C158.48 75.1333 148.307 69.72 131.88 69.72C125.16 69.72 118.813 70.9333 112.84 73.36C112.653 77.6533 112.28 83.0666 111.72 89.6C111.347 95.9466 110.787 103.413 110.04 112C113.027 112.933 115.64 113.773 117.88 114.52C120.12 115.267 121.987 116.013 123.48 116.76C129.453 119.56 133.467 122.827 135.52 126.56C134.773 126.747 133.467 127.493 131.6 128.8C129.92 129.92 127.773 131.413 125.16 133.28C123.293 134.587 121.427 135.613 119.56 136.36C117.693 136.92 116.013 137.293 114.52 137.48C114.707 137.107 114.8 136.547 114.8 135.8C114.8 134.493 112.373 134.12 107.52 134.68C108.453 138.6 107.24 141.027 103.88 141.96C104.44 142.707 104.72 143.827 104.72 145.32C104.72 146.44 104.44 148.307 103.88 150.92C103.32 153.347 103.04 155.027 103.04 155.96C103.04 156.707 103.227 157.453 103.6 158.2ZM67.7601 162.68C73.5467 164.547 80.7334 164.267 89.3201 161.84C89.6934 157.92 89.9734 154.28 90.1601 150.92C90.5334 147.56 90.9067 144.573 91.2801 141.96C78.9601 145.507 71.1201 152.413 67.7601 162.68Z" fill="black"/>
</svg>
